<?xml version="1.0" standalone="no"?>
<!DOCTYPE svg PUBLIC "-//W3C//DTD SVG 1.1//EN" "http://www.w3.org/Graphics/SVG/1.1/DTD/svg11.dtd" >
<svg xmlns="http://www.w3.org/2000/svg" xmlns:xlink="http://www.w3.org/1999/xlink" version="1.1">
<metadata>
Created by FontForge 20201107 at Wed Feb 14 19:02:56 2024
 By 
Alternate r
</metadata>
<defs>
<font id="FONTSPRINGDEMO-RocGroteskWideRegular" horiz-adv-x="1224" >
  <font-face 
    font-family="FSP DEMO - Roc Grotesk Wide"
    font-weight="400"
    font-stretch="expanded"
    units-per-em="2048"
    panose-1="0 0 5 5 0 0 0 0 0 0"
    ascent="1556"
    descent="-492"
    x-height="1012"
    cap-height="1348"
    bbox="-365 -446 2718 1491"
    underline-thickness="102"
    underline-position="-266"
    unicode-range="U+000D-007E"
  />
<missing-glyph 
d="M207 403q-13 0 -19 -2v-200q4 -2 19 -2q37 0 50 25t13 77q0 54 -13 78t-50 24zM518 330v-49h-82v-78h96v-49h-155v297h155v-52h-96v-69h82zM203 150q-47 0 -74 4v292q61 9 76 9q67 0 96 -37.5t29 -116.5t-29.5 -115t-97.5 -36zM586 451h80l39 -164l38 164h82
q3 -45 13 -297h-60q0 108 -6 213l-41 -168h-55l-41 168h-2q-4 -140 -4 -213h-58q3 156 15 297zM987 150q-60 0 -84 35.5t-24 115.5q0 81 24 117.5t84 36.5t85.5 -37t25.5 -117q0 -79 -25.5 -115t-85.5 -36zM987 403q-29 0 -39 -23.5t-10 -78.5q0 -54 10 -78t39 -24
q30 0 40.5 24t10.5 78q0 55 -10 78.5t-41 23.5zM967 1016q49 0 79.5 -24.5t39 -51t8.5 -53.5q0 -43 -34.5 -72.5t-72.5 -34.5q-213 -23 -340 -147q3 8 9 22t25 53.5t39 75.5t50 80.5t59.5 76t66 53.5t71.5 22zM285 909q39 0 78 -21t69.5 -55t58.5 -74.5t48 -81.5t35 -75
t22 -55l8 -21q-117 148 -319 148q-49 0 -88 30t-39 76q0 53 33.5 91t93.5 38zM643 1214q38 -37 48.5 -102t-2.5 -131t-31.5 -126.5t-35.5 -98.5l-18 -39q20 191 -125 330q-35 35 -42 81.5t24 83.5q23 23 53 34t65 3.5t64 -35.5z" />
    <glyph glyph-name=".notdef" 
d="M207 403q-13 0 -19 -2v-200q4 -2 19 -2q37 0 50 25t13 77q0 54 -13 78t-50 24zM518 330v-49h-82v-78h96v-49h-155v297h155v-52h-96v-69h82zM203 150q-47 0 -74 4v292q61 9 76 9q67 0 96 -37.5t29 -116.5t-29.5 -115t-97.5 -36zM586 451h80l39 -164l38 164h82
q3 -45 13 -297h-60q0 108 -6 213l-41 -168h-55l-41 168h-2q-4 -140 -4 -213h-58q3 156 15 297zM987 150q-60 0 -84 35.5t-24 115.5q0 81 24 117.5t84 36.5t85.5 -37t25.5 -117q0 -79 -25.5 -115t-85.5 -36zM987 403q-29 0 -39 -23.5t-10 -78.5q0 -54 10 -78t39 -24
q30 0 40.5 24t10.5 78q0 55 -10 78.5t-41 23.5zM967 1016q49 0 79.5 -24.5t39 -51t8.5 -53.5q0 -43 -34.5 -72.5t-72.5 -34.5q-213 -23 -340 -147q3 8 9 22t25 53.5t39 75.5t50 80.5t59.5 76t66 53.5t71.5 22zM285 909q39 0 78 -21t69.5 -55t58.5 -74.5t48 -81.5t35 -75
t22 -55l8 -21q-117 148 -319 148q-49 0 -88 30t-39 76q0 53 33.5 91t93.5 38zM643 1214q38 -37 48.5 -102t-2.5 -131t-31.5 -126.5t-35.5 -98.5l-18 -39q20 191 -125 330q-35 35 -42 81.5t24 83.5q23 23 53 34t65 3.5t64 -35.5z" />
    <glyph glyph-name=".null" horiz-adv-x="0" 
 />
    <glyph glyph-name="nonmarkingreturn" horiz-adv-x="682" 
 />
    <glyph glyph-name="NULL" horiz-adv-x="0" 
 />
    <glyph glyph-name="NULL" horiz-adv-x="0" 
 />
    <glyph glyph-name="CR" unicode="&#xd;" horiz-adv-x="491" 
 />
    <glyph glyph-name="space" unicode=" " horiz-adv-x="655" 
 />
    <glyph glyph-name="exclam" unicode="!" 
d="M207 403q-13 0 -19 -2v-200q4 -2 19 -2q37 0 50 25t13 77q0 54 -13 78t-50 24zM518 330v-49h-82v-78h96v-49h-155v297h155v-52h-96v-69h82zM203 150q-47 0 -74 4v292q61 9 76 9q67 0 96 -37.5t29 -116.5t-29.5 -115t-97.5 -36zM586 451h80l39 -164l38 164h82
q3 -45 13 -297h-60q0 108 -6 213l-41 -168h-55l-41 168h-2q-4 -140 -4 -213h-58q3 156 15 297zM987 150q-60 0 -84 35.5t-24 115.5q0 81 24 117.5t84 36.5t85.5 -37t25.5 -117q0 -79 -25.5 -115t-85.5 -36zM987 403q-29 0 -39 -23.5t-10 -78.5q0 -54 10 -78t39 -24
q30 0 40.5 24t10.5 78q0 55 -10 78.5t-41 23.5zM967 1016q49 0 79.5 -24.5t39 -51t8.5 -53.5q0 -43 -34.5 -72.5t-72.5 -34.5q-213 -23 -340 -147q3 8 9 22t25 53.5t39 75.5t50 80.5t59.5 76t66 53.5t71.5 22zM285 909q39 0 78 -21t69.5 -55t58.5 -74.5t48 -81.5t35 -75
t22 -55l8 -21q-117 148 -319 148q-49 0 -88 30t-39 76q0 53 33.5 91t93.5 38zM643 1214q38 -37 48.5 -102t-2.5 -131t-31.5 -126.5t-35.5 -98.5l-18 -39q20 191 -125 330q-35 35 -42 81.5t24 83.5q23 23 53 34t65 3.5t64 -35.5z" />
    <glyph glyph-name="quotedbl" unicode="&#x22;" 
d="M207 403q-13 0 -19 -2v-200q4 -2 19 -2q37 0 50 25t13 77q0 54 -13 78t-50 24zM518 330v-49h-82v-78h96v-49h-155v297h155v-52h-96v-69h82zM203 150q-47 0 -74 4v292q61 9 76 9q67 0 96 -37.5t29 -116.5t-29.5 -115t-97.5 -36zM586 451h80l39 -164l38 164h82
q3 -45 13 -297h-60q0 108 -6 213l-41 -168h-55l-41 168h-2q-4 -140 -4 -213h-58q3 156 15 297zM987 150q-60 0 -84 35.5t-24 115.5q0 81 24 117.5t84 36.5t85.5 -37t25.5 -117q0 -79 -25.5 -115t-85.5 -36zM987 403q-29 0 -39 -23.5t-10 -78.5q0 -54 10 -78t39 -24
q30 0 40.5 24t10.5 78q0 55 -10 78.5t-41 23.5zM967 1016q49 0 79.5 -24.5t39 -51t8.5 -53.5q0 -43 -34.5 -72.5t-72.5 -34.5q-213 -23 -340 -147q3 8 9 22t25 53.5t39 75.5t50 80.5t59.5 76t66 53.5t71.5 22zM285 909q39 0 78 -21t69.5 -55t58.5 -74.5t48 -81.5t35 -75
t22 -55l8 -21q-117 148 -319 148q-49 0 -88 30t-39 76q0 53 33.5 91t93.5 38zM643 1214q38 -37 48.5 -102t-2.5 -131t-31.5 -126.5t-35.5 -98.5l-18 -39q20 191 -125 330q-35 35 -42 81.5t24 83.5q23 23 53 34t65 3.5t64 -35.5z" />
    <glyph glyph-name="numbersign" unicode="#" 
d="M207 403q-13 0 -19 -2v-200q4 -2 19 -2q37 0 50 25t13 77q0 54 -13 78t-50 24zM518 330v-49h-82v-78h96v-49h-155v297h155v-52h-96v-69h82zM203 150q-47 0 -74 4v292q61 9 76 9q67 0 96 -37.5t29 -116.5t-29.5 -115t-97.5 -36zM586 451h80l39 -164l38 164h82
q3 -45 13 -297h-60q0 108 -6 213l-41 -168h-55l-41 168h-2q-4 -140 -4 -213h-58q3 156 15 297zM987 150q-60 0 -84 35.5t-24 115.5q0 81 24 117.5t84 36.5t85.5 -37t25.5 -117q0 -79 -25.5 -115t-85.5 -36zM987 403q-29 0 -39 -23.5t-10 -78.5q0 -54 10 -78t39 -24
q30 0 40.5 24t10.5 78q0 55 -10 78.5t-41 23.5zM967 1016q49 0 79.5 -24.5t39 -51t8.5 -53.5q0 -43 -34.5 -72.5t-72.5 -34.5q-213 -23 -340 -147q3 8 9 22t25 53.5t39 75.5t50 80.5t59.5 76t66 53.5t71.5 22zM285 909q39 0 78 -21t69.5 -55t58.5 -74.5t48 -81.5t35 -75
t22 -55l8 -21q-117 148 -319 148q-49 0 -88 30t-39 76q0 53 33.5 91t93.5 38zM643 1214q38 -37 48.5 -102t-2.5 -131t-31.5 -126.5t-35.5 -98.5l-18 -39q20 191 -125 330q-35 35 -42 81.5t24 83.5q23 23 53 34t65 3.5t64 -35.5z" />
    <glyph glyph-name="dollar" unicode="$" 
d="M207 403q-13 0 -19 -2v-200q4 -2 19 -2q37 0 50 25t13 77q0 54 -13 78t-50 24zM518 330v-49h-82v-78h96v-49h-155v297h155v-52h-96v-69h82zM203 150q-47 0 -74 4v292q61 9 76 9q67 0 96 -37.5t29 -116.5t-29.5 -115t-97.5 -36zM586 451h80l39 -164l38 164h82
q3 -45 13 -297h-60q0 108 -6 213l-41 -168h-55l-41 168h-2q-4 -140 -4 -213h-58q3 156 15 297zM987 150q-60 0 -84 35.5t-24 115.5q0 81 24 117.5t84 36.5t85.5 -37t25.5 -117q0 -79 -25.5 -115t-85.5 -36zM987 403q-29 0 -39 -23.5t-10 -78.5q0 -54 10 -78t39 -24
q30 0 40.5 24t10.5 78q0 55 -10 78.5t-41 23.5zM967 1016q49 0 79.5 -24.5t39 -51t8.5 -53.5q0 -43 -34.5 -72.5t-72.5 -34.5q-213 -23 -340 -147q3 8 9 22t25 53.5t39 75.5t50 80.5t59.5 76t66 53.5t71.5 22zM285 909q39 0 78 -21t69.5 -55t58.5 -74.5t48 -81.5t35 -75
t22 -55l8 -21q-117 148 -319 148q-49 0 -88 30t-39 76q0 53 33.5 91t93.5 38zM643 1214q38 -37 48.5 -102t-2.5 -131t-31.5 -126.5t-35.5 -98.5l-18 -39q20 191 -125 330q-35 35 -42 81.5t24 83.5q23 23 53 34t65 3.5t64 -35.5z" />
    <glyph glyph-name="percent" unicode="%" 
d="M207 403q-13 0 -19 -2v-200q4 -2 19 -2q37 0 50 25t13 77q0 54 -13 78t-50 24zM518 330v-49h-82v-78h96v-49h-155v297h155v-52h-96v-69h82zM203 150q-47 0 -74 4v292q61 9 76 9q67 0 96 -37.5t29 -116.5t-29.5 -115t-97.5 -36zM586 451h80l39 -164l38 164h82
q3 -45 13 -297h-60q0 108 -6 213l-41 -168h-55l-41 168h-2q-4 -140 -4 -213h-58q3 156 15 297zM987 150q-60 0 -84 35.5t-24 115.5q0 81 24 117.5t84 36.5t85.5 -37t25.5 -117q0 -79 -25.5 -115t-85.5 -36zM987 403q-29 0 -39 -23.5t-10 -78.5q0 -54 10 -78t39 -24
q30 0 40.5 24t10.5 78q0 55 -10 78.5t-41 23.5zM967 1016q49 0 79.5 -24.5t39 -51t8.5 -53.5q0 -43 -34.5 -72.5t-72.5 -34.5q-213 -23 -340 -147q3 8 9 22t25 53.5t39 75.5t50 80.5t59.5 76t66 53.5t71.5 22zM285 909q39 0 78 -21t69.5 -55t58.5 -74.5t48 -81.5t35 -75
t22 -55l8 -21q-117 148 -319 148q-49 0 -88 30t-39 76q0 53 33.5 91t93.5 38zM643 1214q38 -37 48.5 -102t-2.5 -131t-31.5 -126.5t-35.5 -98.5l-18 -39q20 191 -125 330q-35 35 -42 81.5t24 83.5q23 23 53 34t65 3.5t64 -35.5z" />
    <glyph glyph-name="ampersand" unicode="&#x26;" 
d="M207 403q-13 0 -19 -2v-200q4 -2 19 -2q37 0 50 25t13 77q0 54 -13 78t-50 24zM518 330v-49h-82v-78h96v-49h-155v297h155v-52h-96v-69h82zM203 150q-47 0 -74 4v292q61 9 76 9q67 0 96 -37.5t29 -116.5t-29.5 -115t-97.5 -36zM586 451h80l39 -164l38 164h82
q3 -45 13 -297h-60q0 108 -6 213l-41 -168h-55l-41 168h-2q-4 -140 -4 -213h-58q3 156 15 297zM987 150q-60 0 -84 35.5t-24 115.5q0 81 24 117.5t84 36.5t85.5 -37t25.5 -117q0 -79 -25.5 -115t-85.5 -36zM987 403q-29 0 -39 -23.5t-10 -78.5q0 -54 10 -78t39 -24
q30 0 40.5 24t10.5 78q0 55 -10 78.5t-41 23.5zM967 1016q49 0 79.5 -24.5t39 -51t8.5 -53.5q0 -43 -34.5 -72.5t-72.5 -34.5q-213 -23 -340 -147q3 8 9 22t25 53.5t39 75.5t50 80.5t59.5 76t66 53.5t71.5 22zM285 909q39 0 78 -21t69.5 -55t58.5 -74.5t48 -81.5t35 -75
t22 -55l8 -21q-117 148 -319 148q-49 0 -88 30t-39 76q0 53 33.5 91t93.5 38zM643 1214q38 -37 48.5 -102t-2.5 -131t-31.5 -126.5t-35.5 -98.5l-18 -39q20 191 -125 330q-35 35 -42 81.5t24 83.5q23 23 53 34t65 3.5t64 -35.5z" />
    <glyph glyph-name="quotesingle" unicode="'" 
d="M207 403q-13 0 -19 -2v-200q4 -2 19 -2q37 0 50 25t13 77q0 54 -13 78t-50 24zM518 330v-49h-82v-78h96v-49h-155v297h155v-52h-96v-69h82zM203 150q-47 0 -74 4v292q61 9 76 9q67 0 96 -37.5t29 -116.5t-29.5 -115t-97.5 -36zM586 451h80l39 -164l38 164h82
q3 -45 13 -297h-60q0 108 -6 213l-41 -168h-55l-41 168h-2q-4 -140 -4 -213h-58q3 156 15 297zM987 150q-60 0 -84 35.5t-24 115.5q0 81 24 117.5t84 36.5t85.5 -37t25.5 -117q0 -79 -25.5 -115t-85.5 -36zM987 403q-29 0 -39 -23.5t-10 -78.5q0 -54 10 -78t39 -24
q30 0 40.5 24t10.5 78q0 55 -10 78.5t-41 23.5zM967 1016q49 0 79.5 -24.5t39 -51t8.5 -53.5q0 -43 -34.5 -72.5t-72.5 -34.5q-213 -23 -340 -147q3 8 9 22t25 53.5t39 75.5t50 80.5t59.5 76t66 53.5t71.5 22zM285 909q39 0 78 -21t69.5 -55t58.5 -74.5t48 -81.5t35 -75
t22 -55l8 -21q-117 148 -319 148q-49 0 -88 30t-39 76q0 53 33.5 91t93.5 38zM643 1214q38 -37 48.5 -102t-2.5 -131t-31.5 -126.5t-35.5 -98.5l-18 -39q20 191 -125 330q-35 35 -42 81.5t24 83.5q23 23 53 34t65 3.5t64 -35.5z" />
    <glyph glyph-name="parenleft" unicode="(" 
d="M207 403q-13 0 -19 -2v-200q4 -2 19 -2q37 0 50 25t13 77q0 54 -13 78t-50 24zM518 330v-49h-82v-78h96v-49h-155v297h155v-52h-96v-69h82zM203 150q-47 0 -74 4v292q61 9 76 9q67 0 96 -37.5t29 -116.5t-29.5 -115t-97.5 -36zM586 451h80l39 -164l38 164h82
q3 -45 13 -297h-60q0 108 -6 213l-41 -168h-55l-41 168h-2q-4 -140 -4 -213h-58q3 156 15 297zM987 150q-60 0 -84 35.5t-24 115.5q0 81 24 117.5t84 36.5t85.5 -37t25.5 -117q0 -79 -25.5 -115t-85.5 -36zM987 403q-29 0 -39 -23.5t-10 -78.5q0 -54 10 -78t39 -24
q30 0 40.5 24t10.5 78q0 55 -10 78.5t-41 23.5zM967 1016q49 0 79.5 -24.5t39 -51t8.5 -53.5q0 -43 -34.5 -72.5t-72.5 -34.5q-213 -23 -340 -147q3 8 9 22t25 53.5t39 75.5t50 80.5t59.5 76t66 53.5t71.5 22zM285 909q39 0 78 -21t69.5 -55t58.5 -74.5t48 -81.5t35 -75
t22 -55l8 -21q-117 148 -319 148q-49 0 -88 30t-39 76q0 53 33.5 91t93.5 38zM643 1214q38 -37 48.5 -102t-2.5 -131t-31.5 -126.5t-35.5 -98.5l-18 -39q20 191 -125 330q-35 35 -42 81.5t24 83.5q23 23 53 34t65 3.5t64 -35.5z" />
    <glyph glyph-name="parenright" unicode=")" 
d="M207 403q-13 0 -19 -2v-200q4 -2 19 -2q37 0 50 25t13 77q0 54 -13 78t-50 24zM518 330v-49h-82v-78h96v-49h-155v297h155v-52h-96v-69h82zM203 150q-47 0 -74 4v292q61 9 76 9q67 0 96 -37.5t29 -116.5t-29.5 -115t-97.5 -36zM586 451h80l39 -164l38 164h82
q3 -45 13 -297h-60q0 108 -6 213l-41 -168h-55l-41 168h-2q-4 -140 -4 -213h-58q3 156 15 297zM987 150q-60 0 -84 35.5t-24 115.5q0 81 24 117.5t84 36.5t85.5 -37t25.5 -117q0 -79 -25.5 -115t-85.5 -36zM987 403q-29 0 -39 -23.5t-10 -78.5q0 -54 10 -78t39 -24
q30 0 40.5 24t10.5 78q0 55 -10 78.5t-41 23.5zM967 1016q49 0 79.5 -24.5t39 -51t8.5 -53.5q0 -43 -34.5 -72.5t-72.5 -34.5q-213 -23 -340 -147q3 8 9 22t25 53.5t39 75.5t50 80.5t59.5 76t66 53.5t71.5 22zM285 909q39 0 78 -21t69.5 -55t58.5 -74.5t48 -81.5t35 -75
t22 -55l8 -21q-117 148 -319 148q-49 0 -88 30t-39 76q0 53 33.5 91t93.5 38zM643 1214q38 -37 48.5 -102t-2.5 -131t-31.5 -126.5t-35.5 -98.5l-18 -39q20 191 -125 330q-35 35 -42 81.5t24 83.5q23 23 53 34t65 3.5t64 -35.5z" />
    <glyph glyph-name="asterisk" unicode="*" 
d="M207 403q-13 0 -19 -2v-200q4 -2 19 -2q37 0 50 25t13 77q0 54 -13 78t-50 24zM518 330v-49h-82v-78h96v-49h-155v297h155v-52h-96v-69h82zM203 150q-47 0 -74 4v292q61 9 76 9q67 0 96 -37.5t29 -116.5t-29.5 -115t-97.5 -36zM586 451h80l39 -164l38 164h82
q3 -45 13 -297h-60q0 108 -6 213l-41 -168h-55l-41 168h-2q-4 -140 -4 -213h-58q3 156 15 297zM987 150q-60 0 -84 35.5t-24 115.5q0 81 24 117.5t84 36.5t85.5 -37t25.5 -117q0 -79 -25.5 -115t-85.5 -36zM987 403q-29 0 -39 -23.5t-10 -78.5q0 -54 10 -78t39 -24
q30 0 40.5 24t10.5 78q0 55 -10 78.5t-41 23.5zM967 1016q49 0 79.5 -24.5t39 -51t8.5 -53.5q0 -43 -34.5 -72.5t-72.5 -34.5q-213 -23 -340 -147q3 8 9 22t25 53.5t39 75.5t50 80.5t59.5 76t66 53.5t71.5 22zM285 909q39 0 78 -21t69.5 -55t58.5 -74.5t48 -81.5t35 -75
t22 -55l8 -21q-117 148 -319 148q-49 0 -88 30t-39 76q0 53 33.5 91t93.5 38zM643 1214q38 -37 48.5 -102t-2.5 -131t-31.5 -126.5t-35.5 -98.5l-18 -39q20 191 -125 330q-35 35 -42 81.5t24 83.5q23 23 53 34t65 3.5t64 -35.5z" />
    <glyph glyph-name="plus" unicode="+" 
d="M207 403q-13 0 -19 -2v-200q4 -2 19 -2q37 0 50 25t13 77q0 54 -13 78t-50 24zM518 330v-49h-82v-78h96v-49h-155v297h155v-52h-96v-69h82zM203 150q-47 0 -74 4v292q61 9 76 9q67 0 96 -37.5t29 -116.5t-29.5 -115t-97.5 -36zM586 451h80l39 -164l38 164h82
q3 -45 13 -297h-60q0 108 -6 213l-41 -168h-55l-41 168h-2q-4 -140 -4 -213h-58q3 156 15 297zM987 150q-60 0 -84 35.5t-24 115.5q0 81 24 117.5t84 36.5t85.5 -37t25.5 -117q0 -79 -25.5 -115t-85.5 -36zM987 403q-29 0 -39 -23.5t-10 -78.5q0 -54 10 -78t39 -24
q30 0 40.5 24t10.5 78q0 55 -10 78.5t-41 23.5zM967 1016q49 0 79.5 -24.5t39 -51t8.5 -53.5q0 -43 -34.5 -72.5t-72.5 -34.5q-213 -23 -340 -147q3 8 9 22t25 53.5t39 75.5t50 80.5t59.5 76t66 53.5t71.5 22zM285 909q39 0 78 -21t69.5 -55t58.5 -74.5t48 -81.5t35 -75
t22 -55l8 -21q-117 148 -319 148q-49 0 -88 30t-39 76q0 53 33.5 91t93.5 38zM643 1214q38 -37 48.5 -102t-2.5 -131t-31.5 -126.5t-35.5 -98.5l-18 -39q20 191 -125 330q-35 35 -42 81.5t24 83.5q23 23 53 34t65 3.5t64 -35.5z" />
    <glyph glyph-name="comma" unicode="," horiz-adv-x="684" 
d="M180 -285v109q81 7 117.5 49t36.5 123v4h-90v244h205v-213q0 -287 -269 -316z" />
    <glyph glyph-name="hyphen" unicode="-" 
d="M207 403q-13 0 -19 -2v-200q4 -2 19 -2q37 0 50 25t13 77q0 54 -13 78t-50 24zM518 330v-49h-82v-78h96v-49h-155v297h155v-52h-96v-69h82zM203 150q-47 0 -74 4v292q61 9 76 9q67 0 96 -37.5t29 -116.5t-29.5 -115t-97.5 -36zM586 451h80l39 -164l38 164h82
q3 -45 13 -297h-60q0 108 -6 213l-41 -168h-55l-41 168h-2q-4 -140 -4 -213h-58q3 156 15 297zM987 150q-60 0 -84 35.5t-24 115.5q0 81 24 117.5t84 36.5t85.5 -37t25.5 -117q0 -79 -25.5 -115t-85.5 -36zM987 403q-29 0 -39 -23.5t-10 -78.5q0 -54 10 -78t39 -24
q30 0 40.5 24t10.5 78q0 55 -10 78.5t-41 23.5zM967 1016q49 0 79.5 -24.5t39 -51t8.5 -53.5q0 -43 -34.5 -72.5t-72.5 -34.5q-213 -23 -340 -147q3 8 9 22t25 53.5t39 75.5t50 80.5t59.5 76t66 53.5t71.5 22zM285 909q39 0 78 -21t69.5 -55t58.5 -74.5t48 -81.5t35 -75
t22 -55l8 -21q-117 148 -319 148q-49 0 -88 30t-39 76q0 53 33.5 91t93.5 38zM643 1214q38 -37 48.5 -102t-2.5 -131t-31.5 -126.5t-35.5 -98.5l-18 -39q20 191 -125 330q-35 35 -42 81.5t24 83.5q23 23 53 34t65 3.5t64 -35.5z" />
    <glyph glyph-name="period" unicode="." horiz-adv-x="684" 
d="M240 0v244h204v-244h-204z" />
    <glyph glyph-name="slash" unicode="/" 
d="M207 403q-13 0 -19 -2v-200q4 -2 19 -2q37 0 50 25t13 77q0 54 -13 78t-50 24zM518 330v-49h-82v-78h96v-49h-155v297h155v-52h-96v-69h82zM203 150q-47 0 -74 4v292q61 9 76 9q67 0 96 -37.5t29 -116.5t-29.5 -115t-97.5 -36zM586 451h80l39 -164l38 164h82
q3 -45 13 -297h-60q0 108 -6 213l-41 -168h-55l-41 168h-2q-4 -140 -4 -213h-58q3 156 15 297zM987 150q-60 0 -84 35.5t-24 115.5q0 81 24 117.5t84 36.5t85.5 -37t25.5 -117q0 -79 -25.5 -115t-85.5 -36zM987 403q-29 0 -39 -23.5t-10 -78.5q0 -54 10 -78t39 -24
q30 0 40.5 24t10.5 78q0 55 -10 78.5t-41 23.5zM967 1016q49 0 79.5 -24.5t39 -51t8.5 -53.5q0 -43 -34.5 -72.5t-72.5 -34.5q-213 -23 -340 -147q3 8 9 22t25 53.5t39 75.5t50 80.5t59.5 76t66 53.5t71.5 22zM285 909q39 0 78 -21t69.5 -55t58.5 -74.5t48 -81.5t35 -75
t22 -55l8 -21q-117 148 -319 148q-49 0 -88 30t-39 76q0 53 33.5 91t93.5 38zM643 1214q38 -37 48.5 -102t-2.5 -131t-31.5 -126.5t-35.5 -98.5l-18 -39q20 191 -125 330q-35 35 -42 81.5t24 83.5q23 23 53 34t65 3.5t64 -35.5z" />
    <glyph glyph-name="zero" unicode="0" horiz-adv-x="1638" 
d="M817 -20q-149 0 -270 37.5t-203 102t-138 154t-81 191t-25 215.5q0 148 46.5 273t134.5 217.5t225.5 145t310.5 52.5q174 0 312.5 -52.5t227 -145.5t135 -217.5t46.5 -272.5q0 -114 -25.5 -215.5t-81.5 -191t-138.5 -154t-204.5 -102t-271 -37.5zM817 147
q134 0 237.5 41.5t166 115t94 168.5t31.5 208q0 238 -138 379t-391 141q-250 0 -387 -141t-137 -379q0 -113 31 -208t93 -168.5t164 -115t236 -41.5z" />
    <glyph glyph-name="one" unicode="1" horiz-adv-x="1638" 
d="M162 0v168h614v688h-397v139l266 6q34 1 55 4.5t41 11.5t31 25.5t20.5 41t13.5 65t7 89.5t4 122h152v-1192h508v-168h-1315z" />
    <glyph glyph-name="two" unicode="2" horiz-adv-x="1638" 
d="M141 0q0 78 6 128t28.5 99t57.5 81t103 69t154.5 68.5t220.5 74.5q142 46 237 85t155.5 74.5t92 75t42.5 77.5t11 92q0 53 -24 100.5t-73 87.5t-134.5 64t-196.5 24q-239 0 -361 -93t-122 -255q0 -70 16 -137h-182q-14 63 -14 153q0 102 40 190.5t119 158.5t208.5 110.5
t295.5 40.5q113 0 207.5 -18.5t160.5 -52t116.5 -75.5t79.5 -92.5t43 -100.5t14 -101q0 -93 -28 -163t-99.5 -136t-195 -124t-312.5 -118q-113 -36 -180.5 -58t-122 -42.5t-79.5 -32.5t-41.5 -27.5t-19.5 -27t-4 -31.5h1121v-168h-1340z" />
    <glyph glyph-name="three" unicode="3" horiz-adv-x="1638" 
d="M797 -20q-158 0 -282.5 26.5t-201 69.5t-126 101.5t-68.5 117.5t-19 123q0 54 9 90h176q-4 -32 -4 -68q0 -48 15 -89.5t52.5 -80t95.5 -65t149 -42.5t208 -16q148 0 255.5 21.5t169.5 61.5t91 91t29 115q0 185 -324 185h-330v151h264q174 0 246 49.5t72 143.5
q0 112 -116 173.5t-341 61.5q-491 0 -491 -291q0 -31 4 -63h-174q-11 38 -11 88q0 64 19.5 123t68.5 117t123 100t192.5 68t268.5 26q306 0 469.5 -105t163.5 -272q0 -48 -10.5 -87.5t-34.5 -74.5t-68 -61t-106 -39v-4q153 -17 230 -98.5t77 -200.5q0 -97 -42 -176.5
t-128.5 -140.5t-232 -95t-338.5 -34z" />
    <glyph glyph-name="four" unicode="4" 
d="M207 403q-13 0 -19 -2v-200q4 -2 19 -2q37 0 50 25t13 77q0 54 -13 78t-50 24zM518 330v-49h-82v-78h96v-49h-155v297h155v-52h-96v-69h82zM203 150q-47 0 -74 4v292q61 9 76 9q67 0 96 -37.5t29 -116.5t-29.5 -115t-97.5 -36zM586 451h80l39 -164l38 164h82
q3 -45 13 -297h-60q0 108 -6 213l-41 -168h-55l-41 168h-2q-4 -140 -4 -213h-58q3 156 15 297zM987 150q-60 0 -84 35.5t-24 115.5q0 81 24 117.5t84 36.5t85.5 -37t25.5 -117q0 -79 -25.5 -115t-85.5 -36zM987 403q-29 0 -39 -23.5t-10 -78.5q0 -54 10 -78t39 -24
q30 0 40.5 24t10.5 78q0 55 -10 78.5t-41 23.5zM967 1016q49 0 79.5 -24.5t39 -51t8.5 -53.5q0 -43 -34.5 -72.5t-72.5 -34.5q-213 -23 -340 -147q3 8 9 22t25 53.5t39 75.5t50 80.5t59.5 76t66 53.5t71.5 22zM285 909q39 0 78 -21t69.5 -55t58.5 -74.5t48 -81.5t35 -75
t22 -55l8 -21q-117 148 -319 148q-49 0 -88 30t-39 76q0 53 33.5 91t93.5 38zM643 1214q38 -37 48.5 -102t-2.5 -131t-31.5 -126.5t-35.5 -98.5l-18 -39q20 191 -125 330q-35 35 -42 81.5t24 83.5q23 23 53 34t65 3.5t64 -35.5z" />
    <glyph glyph-name="five" unicode="5" horiz-adv-x="1638" 
d="M856 -20q-170 0 -300.5 24.5t-208 62.5t-126.5 90.5t-66.5 102.5t-17.5 105q0 14 2 28h178v-16q0 -36 15.5 -68t54.5 -62.5t99 -52t154.5 -34.5t215.5 -13q247 0 358 83.5t111 224.5q0 139 -116.5 206.5t-354.5 67.5q-112 0 -203.5 -16t-148.5 -43t-91 -52.5t-53 -52.5
l-186 21l68 762h1155v-168h-998l-45 -500h4q87 201 531 201q137 0 246 -23.5t180 -63t118 -95.5t67 -117.5t20 -132.5q0 -73 -21 -138.5t-70.5 -127t-123.5 -106t-189 -71t-258 -26.5z" />
    <glyph glyph-name="six" unicode="6" horiz-adv-x="1638" 
d="M842 -20q-130 0 -237 20t-183 54t-133.5 85t-93 108t-57.5 127.5t-30 138t-8 146.5q0 158 46.5 286.5t137 223.5t234 147t328.5 52q134 0 242 -22.5t180 -60.5t120 -91t69.5 -112.5t21.5 -125.5q0 -35 -4 -63h-181q4 20 4 43q0 56 -22.5 101.5t-73 83t-141 58.5
t-215.5 21q-274 0 -413.5 -142.5t-139.5 -398.5q0 -22 6 -139h2q23 146 163 212.5t423 66.5q651 0 651 -379q0 -71 -19.5 -132.5t-69 -119.5t-126.5 -98.5t-200 -65t-281 -24.5zM842 147q504 0 504 273q0 41 -12 73.5t-44.5 62t-86 49t-139.5 31t-202 11.5
q-117 0 -210.5 -15.5t-152 -40t-97.5 -58t-54.5 -68t-15.5 -70.5q0 -8 3 -21.5t16 -38t33.5 -48.5t59.5 -50t90.5 -45.5t131.5 -32t176 -12.5z" />
    <glyph glyph-name="seven" unicode="7" horiz-adv-x="1638" 
d="M399 0q108 347 340 656t539 522v2h-1178v168h1430v-160q-197 -131 -348.5 -272t-257 -291t-176 -299.5t-123.5 -325.5h-226z" />
    <glyph glyph-name="eight" unicode="8" horiz-adv-x="1638" 
d="M819 -20q-153 0 -275.5 21t-204.5 57.5t-136.5 87.5t-78.5 107.5t-24 121.5q0 281 361 323v4q-273 45 -273 291q0 52 19.5 103t67 101t117.5 87t180.5 60.5t246.5 23.5t246.5 -23.5t180.5 -60.5t117.5 -87t67 -101t19.5 -103q0 -246 -272 -291v-2q360 -42 360 -325
q0 -65 -24 -121.5t-78.5 -107.5t-136.5 -87.5t-204.5 -57.5t-275.5 -21zM819 764q451 0 451 217q0 44 -24.5 82t-75.5 69.5t-141 49.5t-210 18t-209.5 -18t-140.5 -49.5t-75.5 -69.5t-24.5 -82q0 -217 450 -217zM819 147q268 0 397.5 64t129.5 178q0 223 -527 223
q-526 0 -526 -223q0 -114 129 -178t397 -64z" />
    <glyph glyph-name="nine" unicode="9" horiz-adv-x="1638" 
d="M793 -20q-143 0 -256 21.5t-185.5 58t-120 87.5t-67 106t-19.5 118q0 26 2 51h181q-2 -23 -2 -37q0 -238 467 -238q282 0 417.5 132t135.5 409q0 65 -7 133h-4q-6 -50 -22 -90.5t-56.5 -84t-103 -72.5t-168 -47.5t-244.5 -18.5q-147 0 -261.5 24t-184.5 62t-115 91
t-62.5 106t-17.5 112q0 69 21 132t72.5 125t129 107t200 73t276.5 28q177 0 311 -39.5t214 -102.5t129.5 -154.5t67 -183t17.5 -200.5q0 -347 -181 -527.5t-564 -180.5zM766 659q265 0 401 81.5t136 220.5q0 5 -3.5 17t-16.5 35.5t-33.5 47t-59.5 49t-90 45t-129 32.5
t-172 13q-115 0 -204.5 -17t-145.5 -44.5t-92 -66.5t-50 -79.5t-14 -85.5q0 -41 11 -74.5t42 -67t82.5 -56t137 -36.5t200.5 -14z" />
    <glyph glyph-name="colon" unicode=":" horiz-adv-x="684" 
d="M240 705v243h204v-243h-204zM240 0v244h204v-244h-204z" />
    <glyph glyph-name="semicolon" unicode=";" horiz-adv-x="684" 
d="M240 705v243h204v-243h-204zM176 -285v109q81 7 117.5 49t36.5 123v4h-90v244h204v-213q0 -287 -268 -316z" />
    <glyph glyph-name="less" unicode="&#x3c;" 
d="M207 403q-13 0 -19 -2v-200q4 -2 19 -2q37 0 50 25t13 77q0 54 -13 78t-50 24zM518 330v-49h-82v-78h96v-49h-155v297h155v-52h-96v-69h82zM203 150q-47 0 -74 4v292q61 9 76 9q67 0 96 -37.5t29 -116.5t-29.5 -115t-97.5 -36zM586 451h80l39 -164l38 164h82
q3 -45 13 -297h-60q0 108 -6 213l-41 -168h-55l-41 168h-2q-4 -140 -4 -213h-58q3 156 15 297zM987 150q-60 0 -84 35.5t-24 115.5q0 81 24 117.5t84 36.5t85.5 -37t25.5 -117q0 -79 -25.5 -115t-85.5 -36zM987 403q-29 0 -39 -23.5t-10 -78.5q0 -54 10 -78t39 -24
q30 0 40.5 24t10.5 78q0 55 -10 78.5t-41 23.5zM967 1016q49 0 79.5 -24.5t39 -51t8.5 -53.5q0 -43 -34.5 -72.5t-72.5 -34.5q-213 -23 -340 -147q3 8 9 22t25 53.5t39 75.5t50 80.5t59.5 76t66 53.5t71.5 22zM285 909q39 0 78 -21t69.5 -55t58.5 -74.5t48 -81.5t35 -75
t22 -55l8 -21q-117 148 -319 148q-49 0 -88 30t-39 76q0 53 33.5 91t93.5 38zM643 1214q38 -37 48.5 -102t-2.5 -131t-31.5 -126.5t-35.5 -98.5l-18 -39q20 191 -125 330q-35 35 -42 81.5t24 83.5q23 23 53 34t65 3.5t64 -35.5z" />
    <glyph glyph-name="equal" unicode="=" 
d="M207 403q-13 0 -19 -2v-200q4 -2 19 -2q37 0 50 25t13 77q0 54 -13 78t-50 24zM518 330v-49h-82v-78h96v-49h-155v297h155v-52h-96v-69h82zM203 150q-47 0 -74 4v292q61 9 76 9q67 0 96 -37.5t29 -116.5t-29.5 -115t-97.5 -36zM586 451h80l39 -164l38 164h82
q3 -45 13 -297h-60q0 108 -6 213l-41 -168h-55l-41 168h-2q-4 -140 -4 -213h-58q3 156 15 297zM987 150q-60 0 -84 35.5t-24 115.5q0 81 24 117.5t84 36.5t85.5 -37t25.5 -117q0 -79 -25.5 -115t-85.5 -36zM987 403q-29 0 -39 -23.5t-10 -78.5q0 -54 10 -78t39 -24
q30 0 40.5 24t10.5 78q0 55 -10 78.5t-41 23.5zM967 1016q49 0 79.5 -24.5t39 -51t8.5 -53.5q0 -43 -34.5 -72.5t-72.5 -34.5q-213 -23 -340 -147q3 8 9 22t25 53.5t39 75.5t50 80.5t59.5 76t66 53.5t71.5 22zM285 909q39 0 78 -21t69.5 -55t58.5 -74.5t48 -81.5t35 -75
t22 -55l8 -21q-117 148 -319 148q-49 0 -88 30t-39 76q0 53 33.5 91t93.5 38zM643 1214q38 -37 48.5 -102t-2.5 -131t-31.5 -126.5t-35.5 -98.5l-18 -39q20 191 -125 330q-35 35 -42 81.5t24 83.5q23 23 53 34t65 3.5t64 -35.5z" />
    <glyph glyph-name="greater" unicode="&#x3e;" 
d="M207 403q-13 0 -19 -2v-200q4 -2 19 -2q37 0 50 25t13 77q0 54 -13 78t-50 24zM518 330v-49h-82v-78h96v-49h-155v297h155v-52h-96v-69h82zM203 150q-47 0 -74 4v292q61 9 76 9q67 0 96 -37.5t29 -116.5t-29.5 -115t-97.5 -36zM586 451h80l39 -164l38 164h82
q3 -45 13 -297h-60q0 108 -6 213l-41 -168h-55l-41 168h-2q-4 -140 -4 -213h-58q3 156 15 297zM987 150q-60 0 -84 35.5t-24 115.5q0 81 24 117.5t84 36.5t85.5 -37t25.5 -117q0 -79 -25.5 -115t-85.5 -36zM987 403q-29 0 -39 -23.5t-10 -78.5q0 -54 10 -78t39 -24
q30 0 40.5 24t10.5 78q0 55 -10 78.5t-41 23.5zM967 1016q49 0 79.5 -24.5t39 -51t8.5 -53.5q0 -43 -34.5 -72.5t-72.5 -34.5q-213 -23 -340 -147q3 8 9 22t25 53.5t39 75.5t50 80.5t59.5 76t66 53.5t71.5 22zM285 909q39 0 78 -21t69.5 -55t58.5 -74.5t48 -81.5t35 -75
t22 -55l8 -21q-117 148 -319 148q-49 0 -88 30t-39 76q0 53 33.5 91t93.5 38zM643 1214q38 -37 48.5 -102t-2.5 -131t-31.5 -126.5t-35.5 -98.5l-18 -39q20 191 -125 330q-35 35 -42 81.5t24 83.5q23 23 53 34t65 3.5t64 -35.5z" />
    <glyph glyph-name="question" unicode="?" horiz-adv-x="1204" 
d="M209 369v336h141q65 -170 281 -170q145 0 237.5 89.5t92.5 254.5q0 152 -91 251t-254 99q-162 0 -240.5 -72t-78.5 -174q0 -23 2 -37h-158q-4 20 -4 51q0 73 29 139.5t85.5 121t150.5 86.5t214 32q122 0 218.5 -37.5t158.5 -104.5t94.5 -156t32.5 -195
q0 -223 -128 -359.5t-324 -136.5q-262 0 -318 178h-2v-196h-139zM178 0v244h207v-244h-207z" />
    <glyph glyph-name="at" unicode="@" 
d="M207 403q-13 0 -19 -2v-200q4 -2 19 -2q37 0 50 25t13 77q0 54 -13 78t-50 24zM518 330v-49h-82v-78h96v-49h-155v297h155v-52h-96v-69h82zM203 150q-47 0 -74 4v292q61 9 76 9q67 0 96 -37.5t29 -116.5t-29.5 -115t-97.5 -36zM586 451h80l39 -164l38 164h82
q3 -45 13 -297h-60q0 108 -6 213l-41 -168h-55l-41 168h-2q-4 -140 -4 -213h-58q3 156 15 297zM987 150q-60 0 -84 35.5t-24 115.5q0 81 24 117.5t84 36.5t85.5 -37t25.5 -117q0 -79 -25.5 -115t-85.5 -36zM987 403q-29 0 -39 -23.5t-10 -78.5q0 -54 10 -78t39 -24
q30 0 40.5 24t10.5 78q0 55 -10 78.5t-41 23.5zM967 1016q49 0 79.5 -24.5t39 -51t8.5 -53.5q0 -43 -34.5 -72.5t-72.5 -34.5q-213 -23 -340 -147q3 8 9 22t25 53.5t39 75.5t50 80.5t59.5 76t66 53.5t71.5 22zM285 909q39 0 78 -21t69.5 -55t58.5 -74.5t48 -81.5t35 -75
t22 -55l8 -21q-117 148 -319 148q-49 0 -88 30t-39 76q0 53 33.5 91t93.5 38zM643 1214q38 -37 48.5 -102t-2.5 -131t-31.5 -126.5t-35.5 -98.5l-18 -39q20 191 -125 330q-35 35 -42 81.5t24 83.5q23 23 53 34t65 3.5t64 -35.5z" />
    <glyph glyph-name="A" unicode="A" horiz-adv-x="1982" 
d="M1692 0l-193 319h-1032l-193 -319h-211l820 1348h217l819 -1348h-227zM557 471h852l-424 705h-4z" />
    <glyph glyph-name="B" unicode="B" horiz-adv-x="1687" 
d="M154 0v1348h843q258 0 388.5 -92.5t130.5 -256.5q0 -110 -62.5 -188.5t-167.5 -103.5v-2q138 -20 219.5 -103.5t81.5 -204.5q0 -186 -126 -291.5t-371 -105.5h-936zM346 768h713q131 0 207.5 56t76.5 151q0 205 -362 205h-635v-412zM346 168h690q190 0 280.5 64.5
t90.5 181.5q0 92 -91 147t-243 55h-727v-448z" />
    <glyph glyph-name="C" unicode="C" horiz-adv-x="1781" 
d="M928 -25q-176 0 -319 40.5t-236 107.5t-156 157.5t-90 187.5t-27 202q0 143 53.5 269t153 223t256 153.5t348.5 56.5q162 0 294.5 -34.5t217 -89t142.5 -126t82 -141t24 -137.5v-19h-180v9q0 49 -18.5 98t-62 98.5t-107.5 87.5t-163 62t-220 24q-298 0 -462.5 -147.5
t-164.5 -386.5q0 -104 36.5 -195.5t110 -167t199 -120t289.5 -44.5q140 0 252 31t180.5 83t104.5 117t36 136v10h180v-16q0 -76 -27.5 -149.5t-87.5 -142.5t-146 -121.5t-213 -84t-279 -31.5z" />
    <glyph glyph-name="D" unicode="D" horiz-adv-x="1716" 
d="M154 0v1348h643q185 0 328.5 -37.5t234.5 -99.5t150 -150.5t82.5 -183t23.5 -203.5q0 -162 -42.5 -284.5t-133 -211t-238 -133.5t-350.5 -45h-698zM346 168h502q304 0 439.5 124t135.5 382q0 88 -17.5 160t-61.5 138t-113.5 110.5t-179.5 71t-254 26.5h-451v-1012z" />
    <glyph glyph-name="E" unicode="E" horiz-adv-x="1497" 
d="M154 0v1348h1232v-168h-1040v-426h836v-152h-836v-434h1061v-168h-1253z" />
    <glyph glyph-name="F" unicode="F" horiz-adv-x="1427" 
d="M154 0v1348h1204v-168h-1012v-471h868v-152h-868v-557h-192z" />
    <glyph glyph-name="G" unicode="G" horiz-adv-x="1820" 
d="M930 -25q-170 0 -310 38t-235 103t-160.5 152.5t-95 185t-29.5 203.5q0 114 33 218.5t101 195t165 157.5t233.5 105.5t297.5 38.5q157 0 285 -30t211 -79t139.5 -116t81 -138t24.5 -147q0 -24 -2 -47h-180q2 20 2 41q0 53 -18 101.5t-60.5 94t-105.5 79t-160 53.5
t-217 20q-155 0 -278 -43.5t-200.5 -119t-118 -174t-40.5 -212.5q0 -105 39.5 -196.5t116 -162.5t200.5 -112t281 -41q123 0 222 23t161.5 59t104.5 83.5t59.5 94t17.5 93.5v8h-629v151h822v-655h-181q12 147 17 274h-2q-48 -152 -204 -225.5t-388 -73.5z" />
    <glyph glyph-name="H" unicode="H" horiz-adv-x="1900" 
d="M154 0v1348h192v-568h1208v568h193v-1348h-193v625h-1208v-625h-192z" />
    <glyph glyph-name="I" unicode="I" horiz-adv-x="512" 
d="M160 0v1348h192v-1348h-192z" />
    <glyph glyph-name="J" unicode="J" horiz-adv-x="1589" 
d="M774 -25q-312 0 -477.5 144t-165.5 399q0 67 6 184h180q-6 -123 -6 -184q0 -181 117 -278t346 -97q106 0 191.5 27t151 83.5t101 150t35.5 219.5v725h193v-717q0 -327 -178.5 -491.5t-493.5 -164.5z" />
    <glyph glyph-name="K" unicode="K" horiz-adv-x="1923" 
d="M154 0v1348h192v-846h4l1182 846h289l-908 -639l955 -709h-316l-790 594l-416 -291v-303h-192z" />
    <glyph glyph-name="L" unicode="L" horiz-adv-x="1355" 
d="M154 0v1348h192v-1180h942v-168h-1134z" />
    <glyph glyph-name="M" unicode="M" horiz-adv-x="2125" 
d="M154 0v1348h321l590 -1127h2l588 1127h317v-1348h-192v1210h-2l-643 -1210h-146l-647 1210h-4v-1210h-184z" />
    <glyph glyph-name="N" unicode="N" horiz-adv-x="1873" 
d="M154 0v1348h284l1094 -1090h4v1090h184v-1348h-190l-1190 1186h-2v-1186h-184z" />
    <glyph glyph-name="O" unicode="O" horiz-adv-x="1912" 
d="M956 -25q-210 0 -373.5 51t-268.5 145t-159.5 222.5t-54.5 286.5q0 147 55 272t159.5 219t269.5 147.5t372 53.5t372 -53.5t269.5 -147.5t159.5 -219t55 -272q0 -151 -52.5 -278t-155 -223t-268.5 -150t-380 -54zM956 143q166 0 294.5 40.5t208.5 113t120.5 169.5
t40.5 214q0 112 -43 206.5t-124.5 166t-209 111.5t-287.5 40t-287.5 -40t-209 -111.5t-124 -166t-42.5 -206.5q0 -249 170 -393t493 -144z" />
    <glyph glyph-name="P" unicode="P" horiz-adv-x="1654" 
d="M154 0v1348h811q291 0 440 -117.5t149 -337.5q0 -218 -146.5 -336.5t-432.5 -118.5h-629v-438h-192zM346 590h598q213 0 317.5 72.5t104.5 224.5q0 148 -101 220.5t-327 72.5h-592v-590z" />
    <glyph glyph-name="Q" unicode="Q" horiz-adv-x="1912" 
d="M956 -25q-210 0 -373.5 51t-268.5 145t-159.5 222.5t-54.5 286.5q0 147 55 272t159.5 219t269.5 147.5t372 53.5q204 0 368.5 -53t270 -145t161.5 -213t56 -259q0 -231 -101 -376t-335 -207v-4q289 15 430 28v-168h-850zM956 143q166 0 294.5 40.5t208.5 113t120.5 169.5
t40.5 214q0 112 -43 206.5t-124.5 166t-209 111.5t-287.5 40t-287.5 -40t-209 -111.5t-124 -166t-42.5 -206.5q0 -249 170 -393t493 -144z" />
    <glyph glyph-name="R" unicode="R" horiz-adv-x="1738" 
d="M154 0v1348h847q298 0 446 -103t148 -287q0 -118 -68 -203t-190 -114v-4q250 -47 250 -348v-289h-192v289q0 131 -75.5 195.5t-234.5 64.5h-739v-549h-192zM346 700h705q180 0 272 63t92 173q0 244 -440 244h-629v-480z" />
    <glyph glyph-name="S" unicode="S" horiz-adv-x="1744" 
d="M860 -25q-122 0 -223.5 13t-174.5 37t-130 54.5t-93.5 69t-61 75.5t-37 80.5t-17 77.5t-4.5 71h180q0 -33 5 -61.5t20.5 -61t41 -58.5t68.5 -51t100.5 -41.5t140.5 -26.5t185 -10q143 0 249 14t169 37t100.5 57.5t50.5 69.5t13 80q0 118 -142 156q-30 8 -74 14.5
t-103.5 10.5t-104 6.5t-117.5 5.5t-102 4q-400 18 -525 74q-76 34 -119.5 104.5t-43.5 161.5q0 90 45.5 167.5t134 137.5t232 94.5t327.5 34.5q126 0 229 -13.5t177 -36.5t129.5 -57.5t90 -73t56 -87t29.5 -95.5t8 -102h-180q0 71 -24.5 122.5t-83.5 92.5t-166.5 61.5
t-264.5 20.5q-274 0 -410.5 -66.5t-136.5 -185.5q0 -58 29.5 -93t87.5 -56q43 -16 145 -27t163 -14t185 -8q129 -6 198 -10t169.5 -17t157.5 -33q93 -32 144.5 -106.5t51.5 -173.5q0 -439 -774 -439z" />
    <glyph glyph-name="T" unicode="T" horiz-adv-x="1556" 
d="M682 0v1180h-625v168h1442v-168h-625v-1180h-192z" />
    <glyph glyph-name="U" unicode="U" horiz-adv-x="1818" 
d="M911 -25q-367 0 -567.5 158t-200.5 473v742h193v-719q0 -244 146.5 -365t428.5 -121q285 0 434.5 121t149.5 365v719h180v-742q0 -316 -197.5 -473.5t-566.5 -157.5z" />
    <glyph glyph-name="V" unicode="V" horiz-adv-x="1951" 
d="M864 0l-811 1348h226l702 -1178h4l698 1178h215l-811 -1348h-223z" />
    <glyph glyph-name="W" unicode="W" horiz-adv-x="2770" 
d="M688 0l-635 1348h213l531 -1127h4l502 1104h190l492 -1104h4l528 1127h201l-637 -1348h-207l-481 1075h-4l-492 -1075h-209z" />
    <glyph glyph-name="X" unicode="X" horiz-adv-x="1800" 
d="M53 0l711 684l-690 664h272l563 -543l553 543h264l-694 -660l715 -688h-272l-586 563l-574 -563h-262z" />
    <glyph glyph-name="Y" unicode="Y" horiz-adv-x="1886" 
d="M846 0v557l-793 791h273l624 -629h4l621 629h258l-795 -791v-557h-192z" />
    <glyph glyph-name="Z" unicode="Z" horiz-adv-x="1562" 
d="M98 0v133l1106 1045v2h-1091v168h1351v-144l-1093 -1034v-2h1079v-168h-1352z" />
    <glyph glyph-name="bracketleft" unicode="[" 
d="M207 403q-13 0 -19 -2v-200q4 -2 19 -2q37 0 50 25t13 77q0 54 -13 78t-50 24zM518 330v-49h-82v-78h96v-49h-155v297h155v-52h-96v-69h82zM203 150q-47 0 -74 4v292q61 9 76 9q67 0 96 -37.5t29 -116.5t-29.5 -115t-97.5 -36zM586 451h80l39 -164l38 164h82
q3 -45 13 -297h-60q0 108 -6 213l-41 -168h-55l-41 168h-2q-4 -140 -4 -213h-58q3 156 15 297zM987 150q-60 0 -84 35.5t-24 115.5q0 81 24 117.5t84 36.5t85.5 -37t25.5 -117q0 -79 -25.5 -115t-85.5 -36zM987 403q-29 0 -39 -23.5t-10 -78.5q0 -54 10 -78t39 -24
q30 0 40.5 24t10.5 78q0 55 -10 78.5t-41 23.5zM967 1016q49 0 79.5 -24.5t39 -51t8.5 -53.5q0 -43 -34.5 -72.5t-72.5 -34.5q-213 -23 -340 -147q3 8 9 22t25 53.5t39 75.5t50 80.5t59.5 76t66 53.5t71.5 22zM285 909q39 0 78 -21t69.5 -55t58.5 -74.5t48 -81.5t35 -75
t22 -55l8 -21q-117 148 -319 148q-49 0 -88 30t-39 76q0 53 33.5 91t93.5 38zM643 1214q38 -37 48.5 -102t-2.5 -131t-31.5 -126.5t-35.5 -98.5l-18 -39q20 191 -125 330q-35 35 -42 81.5t24 83.5q23 23 53 34t65 3.5t64 -35.5z" />
    <glyph glyph-name="backslash" unicode="\" 
d="M207 403q-13 0 -19 -2v-200q4 -2 19 -2q37 0 50 25t13 77q0 54 -13 78t-50 24zM518 330v-49h-82v-78h96v-49h-155v297h155v-52h-96v-69h82zM203 150q-47 0 -74 4v292q61 9 76 9q67 0 96 -37.5t29 -116.5t-29.5 -115t-97.5 -36zM586 451h80l39 -164l38 164h82
q3 -45 13 -297h-60q0 108 -6 213l-41 -168h-55l-41 168h-2q-4 -140 -4 -213h-58q3 156 15 297zM987 150q-60 0 -84 35.5t-24 115.5q0 81 24 117.5t84 36.5t85.5 -37t25.5 -117q0 -79 -25.5 -115t-85.5 -36zM987 403q-29 0 -39 -23.5t-10 -78.5q0 -54 10 -78t39 -24
q30 0 40.5 24t10.5 78q0 55 -10 78.5t-41 23.5zM967 1016q49 0 79.5 -24.5t39 -51t8.5 -53.5q0 -43 -34.5 -72.5t-72.5 -34.5q-213 -23 -340 -147q3 8 9 22t25 53.5t39 75.5t50 80.5t59.5 76t66 53.5t71.5 22zM285 909q39 0 78 -21t69.5 -55t58.5 -74.5t48 -81.5t35 -75
t22 -55l8 -21q-117 148 -319 148q-49 0 -88 30t-39 76q0 53 33.5 91t93.5 38zM643 1214q38 -37 48.5 -102t-2.5 -131t-31.5 -126.5t-35.5 -98.5l-18 -39q20 191 -125 330q-35 35 -42 81.5t24 83.5q23 23 53 34t65 3.5t64 -35.5z" />
    <glyph glyph-name="bracketright" unicode="]" 
d="M207 403q-13 0 -19 -2v-200q4 -2 19 -2q37 0 50 25t13 77q0 54 -13 78t-50 24zM518 330v-49h-82v-78h96v-49h-155v297h155v-52h-96v-69h82zM203 150q-47 0 -74 4v292q61 9 76 9q67 0 96 -37.5t29 -116.5t-29.5 -115t-97.5 -36zM586 451h80l39 -164l38 164h82
q3 -45 13 -297h-60q0 108 -6 213l-41 -168h-55l-41 168h-2q-4 -140 -4 -213h-58q3 156 15 297zM987 150q-60 0 -84 35.5t-24 115.5q0 81 24 117.5t84 36.5t85.5 -37t25.5 -117q0 -79 -25.5 -115t-85.5 -36zM987 403q-29 0 -39 -23.5t-10 -78.5q0 -54 10 -78t39 -24
q30 0 40.5 24t10.5 78q0 55 -10 78.5t-41 23.5zM967 1016q49 0 79.5 -24.5t39 -51t8.5 -53.5q0 -43 -34.5 -72.5t-72.5 -34.5q-213 -23 -340 -147q3 8 9 22t25 53.5t39 75.5t50 80.5t59.5 76t66 53.5t71.5 22zM285 909q39 0 78 -21t69.5 -55t58.5 -74.5t48 -81.5t35 -75
t22 -55l8 -21q-117 148 -319 148q-49 0 -88 30t-39 76q0 53 33.5 91t93.5 38zM643 1214q38 -37 48.5 -102t-2.5 -131t-31.5 -126.5t-35.5 -98.5l-18 -39q20 191 -125 330q-35 35 -42 81.5t24 83.5q23 23 53 34t65 3.5t64 -35.5z" />
    <glyph glyph-name="asciicircum" unicode="^" 
d="M207 403q-13 0 -19 -2v-200q4 -2 19 -2q37 0 50 25t13 77q0 54 -13 78t-50 24zM518 330v-49h-82v-78h96v-49h-155v297h155v-52h-96v-69h82zM203 150q-47 0 -74 4v292q61 9 76 9q67 0 96 -37.5t29 -116.5t-29.5 -115t-97.5 -36zM586 451h80l39 -164l38 164h82
q3 -45 13 -297h-60q0 108 -6 213l-41 -168h-55l-41 168h-2q-4 -140 -4 -213h-58q3 156 15 297zM987 150q-60 0 -84 35.5t-24 115.5q0 81 24 117.5t84 36.5t85.5 -37t25.5 -117q0 -79 -25.5 -115t-85.5 -36zM987 403q-29 0 -39 -23.5t-10 -78.5q0 -54 10 -78t39 -24
q30 0 40.5 24t10.5 78q0 55 -10 78.5t-41 23.5zM967 1016q49 0 79.5 -24.5t39 -51t8.5 -53.5q0 -43 -34.5 -72.5t-72.5 -34.5q-213 -23 -340 -147q3 8 9 22t25 53.5t39 75.5t50 80.5t59.5 76t66 53.5t71.5 22zM285 909q39 0 78 -21t69.5 -55t58.5 -74.5t48 -81.5t35 -75
t22 -55l8 -21q-117 148 -319 148q-49 0 -88 30t-39 76q0 53 33.5 91t93.5 38zM643 1214q38 -37 48.5 -102t-2.5 -131t-31.5 -126.5t-35.5 -98.5l-18 -39q20 191 -125 330q-35 35 -42 81.5t24 83.5q23 23 53 34t65 3.5t64 -35.5z" />
    <glyph glyph-name="underscore" unicode="_" 
d="M207 403q-13 0 -19 -2v-200q4 -2 19 -2q37 0 50 25t13 77q0 54 -13 78t-50 24zM518 330v-49h-82v-78h96v-49h-155v297h155v-52h-96v-69h82zM203 150q-47 0 -74 4v292q61 9 76 9q67 0 96 -37.5t29 -116.5t-29.5 -115t-97.5 -36zM586 451h80l39 -164l38 164h82
q3 -45 13 -297h-60q0 108 -6 213l-41 -168h-55l-41 168h-2q-4 -140 -4 -213h-58q3 156 15 297zM987 150q-60 0 -84 35.5t-24 115.5q0 81 24 117.5t84 36.5t85.5 -37t25.5 -117q0 -79 -25.5 -115t-85.5 -36zM987 403q-29 0 -39 -23.5t-10 -78.5q0 -54 10 -78t39 -24
q30 0 40.5 24t10.5 78q0 55 -10 78.5t-41 23.5zM967 1016q49 0 79.5 -24.5t39 -51t8.5 -53.5q0 -43 -34.5 -72.5t-72.5 -34.5q-213 -23 -340 -147q3 8 9 22t25 53.5t39 75.5t50 80.5t59.5 76t66 53.5t71.5 22zM285 909q39 0 78 -21t69.5 -55t58.5 -74.5t48 -81.5t35 -75
t22 -55l8 -21q-117 148 -319 148q-49 0 -88 30t-39 76q0 53 33.5 91t93.5 38zM643 1214q38 -37 48.5 -102t-2.5 -131t-31.5 -126.5t-35.5 -98.5l-18 -39q20 191 -125 330q-35 35 -42 81.5t24 83.5q23 23 53 34t65 3.5t64 -35.5z" />
    <glyph glyph-name="grave" unicode="`" 
d="M207 403q-13 0 -19 -2v-200q4 -2 19 -2q37 0 50 25t13 77q0 54 -13 78t-50 24zM518 330v-49h-82v-78h96v-49h-155v297h155v-52h-96v-69h82zM203 150q-47 0 -74 4v292q61 9 76 9q67 0 96 -37.5t29 -116.5t-29.5 -115t-97.5 -36zM586 451h80l39 -164l38 164h82
q3 -45 13 -297h-60q0 108 -6 213l-41 -168h-55l-41 168h-2q-4 -140 -4 -213h-58q3 156 15 297zM987 150q-60 0 -84 35.5t-24 115.5q0 81 24 117.5t84 36.5t85.5 -37t25.5 -117q0 -79 -25.5 -115t-85.5 -36zM987 403q-29 0 -39 -23.5t-10 -78.5q0 -54 10 -78t39 -24
q30 0 40.5 24t10.5 78q0 55 -10 78.5t-41 23.5zM967 1016q49 0 79.5 -24.5t39 -51t8.5 -53.5q0 -43 -34.5 -72.5t-72.5 -34.5q-213 -23 -340 -147q3 8 9 22t25 53.5t39 75.5t50 80.5t59.5 76t66 53.5t71.5 22zM285 909q39 0 78 -21t69.5 -55t58.5 -74.5t48 -81.5t35 -75
t22 -55l8 -21q-117 148 -319 148q-49 0 -88 30t-39 76q0 53 33.5 91t93.5 38zM643 1214q38 -37 48.5 -102t-2.5 -131t-31.5 -126.5t-35.5 -98.5l-18 -39q20 191 -125 330q-35 35 -42 81.5t24 83.5q23 23 53 34t65 3.5t64 -35.5z" />
    <glyph glyph-name="a" unicode="a" horiz-adv-x="1480" 
d="M631 -18q-259 0 -389.5 89t-130.5 226q0 65 24 113t63.5 77t98 46.5t117.5 23.5t133 6h643v27q0 291 -455 291q-217 0 -317.5 -53t-100.5 -142q0 -13 2 -27h-172q-2 18 -2 35q0 156 150 247t440 91q310 0 472.5 -124.5t162.5 -336.5v-571h-180q8 89 12 260h-2
q-37 -137 -173 -207.5t-396 -70.5zM641 133q139 0 247.5 25t172.5 67.5t96.5 94t32.5 108.5v4h-621q-50 0 -83.5 -1.5t-69 -6t-57.5 -13.5t-40.5 -23t-27 -36t-8.5 -51q0 -168 358 -168z" />
    <glyph glyph-name="b" unicode="b" horiz-adv-x="1613" 
d="M885 -20q-183 0 -307.5 34t-188 91.5t-90.5 142.5h-2q3 -115 12 -248h-180v1434h180v-551q0 -25 -1 -81t-1 -75h4q97 305 551 305q156 0 281 -40t205 -109.5t122.5 -162t42.5 -200.5q0 -238 -171 -389t-457 -151zM850 139q238 0 360.5 103.5t122.5 277.5
q0 69 -27.5 130.5t-83 112t-150.5 80t-218 29.5q-238 0 -391.5 -114t-153.5 -279v-18q0 -45 21 -90t66 -87t107.5 -74t152.5 -51.5t194 -19.5z" />
    <glyph glyph-name="c" unicode="c" horiz-adv-x="1466" 
d="M743 -20q-134 0 -243.5 30.5t-182.5 81t-123 119t-72 142.5t-22 153q0 109 42 203.5t122 167t207 114t287 41.5q127 0 230 -23.5t171 -63.5t114 -94.5t66.5 -113.5t20.5 -123h-172q-2 112 -106 185t-324 73q-233 0 -355 -102t-122 -264q0 -74 25 -137.5t77 -116
t144.5 -83t215.5 -30.5q96 0 173 14t128 37.5t85 56.5t49 69t16 77h172q0 -62 -20 -119.5t-67.5 -111.5t-117.5 -94t-177.5 -64t-240.5 -24z" />
    <glyph glyph-name="d" unicode="d" horiz-adv-x="1613" 
d="M770 -20q-315 0 -492.5 144.5t-177.5 393.5q0 224 178.5 369t491.5 145q462 0 533 -250h2v652h180v-1434h-180q5 82 10 287h-4q-39 -144 -177 -225.5t-364 -81.5zM770 139q129 0 235 35t169 90t97 117.5t34 122.5v33q0 151 -135.5 243t-399.5 92q-238 0 -363.5 -97.5
t-125.5 -256.5q0 -176 130 -277.5t359 -101.5z" />
    <glyph glyph-name="e" unicode="e" horiz-adv-x="1484" 
d="M1384 535v-78h-1101q4 -55 21 -101t53.5 -88.5t90.5 -72t136.5 -47t187.5 -17.5q110 0 194.5 16.5t134 45.5t76.5 62.5t35 72.5h172q-6 -65 -44.5 -124.5t-109 -110.5t-189 -82t-269.5 -31t-269.5 30.5t-193 80.5t-123 119t-67.5 139.5t-19 148.5q0 244 177 389t485 145
t465 -132t157 -365zM1212 588v6q0 133 -112 210t-336 77q-420 0 -475 -293h923z" />
    <glyph glyph-name="f" unicode="f" horiz-adv-x="1126" 
d="M236 0v852h-216v160h216v92q0 188 133 287.5t358 99.5q77 0 156 -13t123 -28v-158q-46 14 -122 26.5t-147 12.5q-171 0 -246 -56.5t-75 -182.5v-80h610v-160h-610v-852h-180z" />
    <glyph glyph-name="g" unicode="g" horiz-adv-x="1554" 
d="M1075 154q113 0 194.5 -22t124.5 -59.5t62 -80t19 -92.5q0 -57 -20 -105.5t-69 -94t-125 -77t-195 -50.5t-271 -19q-166 0 -292 17t-204.5 45t-127.5 69.5t-68 86t-19 97.5q0 91 72 146t194 51l2 2q-86 66 -86 168q0 121 70 167v3q-182 89 -182 278q0 151 142.5 249.5
t422.5 98.5q231 0 375 -69l2 4q-16 14 -26.5 39.5t-10.5 52.5q0 63 56.5 105t168.5 42q72 0 119 -14v-154q-57 17 -111 17q-58 0 -86 -26t-28 -60q0 -38 22 -78q86 -86 86 -207q0 -154 -144.5 -251t-422.5 -97q-144 0 -270 29q-31 -37 -31 -91q0 -52 40.5 -86t125.5 -34h491
zM719 881q-195 0 -294 -55.5t-99 -141.5q0 -94 98.5 -145.5t294.5 -51.5q194 0 294.5 54t100.5 143q0 91 -101.5 144t-293.5 53zM795 -295q187 0 298.5 21t156 59t44.5 98q0 58 -59.5 88.5t-212.5 30.5h-428q-182 0 -256 -33t-74 -102q0 -37 26.5 -65.5t85.5 -50.5
t164.5 -34t254.5 -12z" />
    <glyph glyph-name="h" unicode="h" horiz-adv-x="1603" 
d="M129 0v1434h180v-521q0 -108 -2 -198h4q64 164 203.5 240.5t386.5 76.5q157 0 274 -36t185 -100.5t100.5 -145t32.5 -177.5v-573h-180v526q0 83 -22.5 144.5t-74 108t-141.5 70t-219 23.5q-107 0 -204 -27t-174.5 -78t-123 -133t-45.5 -185v-449h-180z" />
    <glyph glyph-name="i" unicode="i" horiz-adv-x="454" 
d="M125 1169v217h205v-217h-205zM137 0v1012h180v-1012h-180z" />
    <glyph glyph-name="j" unicode="j" horiz-adv-x="452" 
d="M123 1169v217h205v-217h-205zM-145 -426q-132 0 -220 27v155q99 -22 220 -22q150 0 215 83t65 236v959h180v-965q0 -77 -14.5 -144t-48.5 -128.5t-86 -105t-131.5 -69.5t-179.5 -26z" />
    <glyph glyph-name="k" unicode="k" horiz-adv-x="1601" 
d="M129 0v1434h180v-1006h2l899 584h289l-731 -459l770 -553h-295l-614 455l-320 -199v-256h-180z" />
    <glyph glyph-name="l" unicode="l" horiz-adv-x="438" 
d="M129 0v1434h180v-1434h-180z" />
    <glyph glyph-name="m" unicode="m" horiz-adv-x="2332" 
d="M121 0v1012h180l-2 -303h2q52 164 170 243.5t309 79.5q199 0 320.5 -86.5t150.5 -228.5h2q79 315 488 315q237 0 359 -117.5t122 -330.5v-584h-180v537q0 166 -81 250.5t-261 84.5q-77 0 -151.5 -23.5t-140 -71t-106 -130.5t-40.5 -190v-457h-181v537q0 166 -82 250.5
t-262 84.5q-59 0 -119.5 -16t-117.5 -50t-101 -82t-71 -117t-27 -150v-457h-180z" />
    <glyph glyph-name="n" unicode="n" horiz-adv-x="1595" 
d="M121 0v1012h180l-2 -297h4q64 164 203.5 240.5t386.5 76.5q157 0 274 -36t185 -100.5t100.5 -145t32.5 -177.5v-573h-180v526q0 83 -22.5 144.5t-74 108t-141.5 70t-219 23.5q-107 0 -204 -27t-174.5 -78t-123 -133t-45.5 -185v-449h-180z" />
    <glyph glyph-name="o" unicode="o" horiz-adv-x="1564" 
d="M782 -20q-142 0 -258 29.5t-193.5 79t-130.5 117t-76.5 142t-23.5 156.5q0 81 24 156t77.5 143t131.5 118.5t193.5 80.5t255.5 30t255.5 -30t193.5 -80.5t131.5 -118.5t77.5 -143t24 -156q0 -82 -23.5 -156.5t-76.5 -142t-130.5 -117t-193.5 -79t-258 -29.5zM782 139
q133 0 232.5 30t157 82t85 115.5t27.5 137.5t-28 137.5t-85.5 116.5t-157 83.5t-231.5 30.5t-231.5 -30.5t-156.5 -83.5t-85 -116.5t-28 -137.5t27.5 -137t84.5 -115.5t156.5 -82.5t232.5 -30z" />
    <glyph glyph-name="p" unicode="p" horiz-adv-x="1613" 
d="M129 -406v1418h180l-2 -287h2q102 307 545 307q308 0 483.5 -142.5t175.5 -373.5q0 -252 -175 -394t-470 -142q-166 0 -280 30t-180 84t-105 139h-2q8 -140 8 -225v-414h-180zM850 139q234 0 358.5 95.5t124.5 281.5q0 157 -126.5 256.5t-360.5 99.5q-244 0 -388 -110.5
t-149 -272.5v-30q0 -57 35 -112.5t99.5 -102.5t171 -76t235.5 -29z" />
    <glyph glyph-name="q" unicode="q" horiz-adv-x="1613" 
d="M1305 -406v678h-5q-31 -138 -170 -215t-372 -77q-301 0 -479.5 142.5t-178.5 383.5q0 110 45 205t129 167t213 113t287 41q223 0 360.5 -69t168.5 -187h2v236h180v-1418h-180zM770 139q102 0 191.5 24.5t151 64t106 89t65.5 99t21 94.5v27q0 143 -141.5 239t-389.5 96
q-239 0 -366 -103t-127 -263q0 -174 130 -270.5t359 -96.5z" />
    <glyph glyph-name="r" unicode="r" horiz-adv-x="1392" 
d="M121 0v1012h180l-2 -322h4q116 342 512 342q477 0 477 -491q0 -102 -4 -156h-170q0 11 1 48t1 56q0 198 -77 290.5t-261 92.5q-108 0 -200 -40.5t-152.5 -109t-94.5 -159t-34 -190.5v-373h-180z" />
    <glyph glyph-name="s" unicode="s" horiz-adv-x="1425" 
d="M694 -20q-106 0 -193.5 12t-148 32t-107 49t-73.5 59.5t-43.5 67.5t-22.5 69t-6 67h172q0 -34 8.5 -60.5t35 -54.5t71 -47t123 -31t184.5 -12t186 9t129.5 24t80.5 37t43 46t12 54q0 39 -18 64t-64 38q-66 18 -393 27q-337 9 -459 72q-55 28 -83 81t-28 117
q0 151 158.5 241.5t435.5 90.5q138 0 241.5 -20.5t166 -53.5t101 -81.5t52 -97.5t13.5 -109h-172q-1 40 -10 69.5t-35 57.5t-69 45.5t-114.5 28t-169.5 10.5q-417 0 -417 -174q0 -74 79 -97q21 -7 50.5 -11.5t75 -7.5t78.5 -4.5t100.5 -4t101.5 -4.5q167 -7 263 -18.5
t159 -37.5q69 -29 103 -87t34 -130q0 -49 -16 -92t-59.5 -87t-112 -75.5t-182.5 -51t-261 -19.5z" />
    <glyph glyph-name="t" unicode="t" horiz-adv-x="1140" 
d="M780 -8q-146 0 -253.5 30t-169.5 85t-91.5 126t-29.5 160v459h-216v160h170q27 0 39 15t15 52l12 162h160v-229h622v-160h-622v-444q0 -65 17 -110t58 -79t114 -50.5t181 -16.5q138 0 248 26v-155q-101 -31 -254 -31z" />
    <glyph glyph-name="u" unicode="u" horiz-adv-x="1595" 
d="M707 -20q-122 0 -221.5 25t-168.5 68t-116 103t-68.5 128.5t-21.5 144.5v563h180v-529q0 -81 22.5 -141.5t72.5 -107.5t137.5 -71t211.5 -24q153 0 279 53t203 159t77 247v414h181v-1012h-181q11 226 11 332h-5q-78 -352 -593 -352z" />
    <glyph glyph-name="v" unicode="v" horiz-adv-x="1611" 
d="M702 0l-649 1012h215l545 -856h2l537 856h207l-650 -1012h-207z" />
    <glyph glyph-name="w" unicode="w" horiz-adv-x="2134" 
d="M473 0l-420 1012h199l334 -834h2l403 834h172l385 -834h2l342 834h189l-422 -1012h-211l-377 807h-4l-387 -807h-207z" />
    <glyph glyph-name="x" unicode="x" horiz-adv-x="1466" 
d="M53 0l547 522l-526 490h252l413 -385l408 385h246l-537 -494l557 -518h-252l-442 412l-418 -412h-248z" />
    <glyph glyph-name="y" unicode="y" horiz-adv-x="1507" 
d="M379 -446q-102 0 -174 28v158q74 -27 174 -27q71 0 119 22.5t98 83t117 181.5h-35l-625 1012h215l523 -858h4l462 858h197l-563 -1030q-70 -127 -120.5 -202t-110.5 -129.5t-125.5 -75.5t-155.5 -21z" />
    <glyph glyph-name="z" unicode="z" horiz-adv-x="1284" 
d="M96 0v109l817 739v4h-800v160h1075v-109l-817 -741v-2h817v-160h-1092z" />
    <glyph glyph-name="braceleft" unicode="{" 
d="M207 403q-13 0 -19 -2v-200q4 -2 19 -2q37 0 50 25t13 77q0 54 -13 78t-50 24zM518 330v-49h-82v-78h96v-49h-155v297h155v-52h-96v-69h82zM203 150q-47 0 -74 4v292q61 9 76 9q67 0 96 -37.5t29 -116.5t-29.5 -115t-97.5 -36zM586 451h80l39 -164l38 164h82
q3 -45 13 -297h-60q0 108 -6 213l-41 -168h-55l-41 168h-2q-4 -140 -4 -213h-58q3 156 15 297zM987 150q-60 0 -84 35.5t-24 115.5q0 81 24 117.5t84 36.5t85.5 -37t25.5 -117q0 -79 -25.5 -115t-85.5 -36zM987 403q-29 0 -39 -23.5t-10 -78.5q0 -54 10 -78t39 -24
q30 0 40.5 24t10.5 78q0 55 -10 78.5t-41 23.5zM967 1016q49 0 79.5 -24.5t39 -51t8.5 -53.5q0 -43 -34.5 -72.5t-72.5 -34.5q-213 -23 -340 -147q3 8 9 22t25 53.5t39 75.5t50 80.5t59.5 76t66 53.5t71.5 22zM285 909q39 0 78 -21t69.5 -55t58.5 -74.5t48 -81.5t35 -75
t22 -55l8 -21q-117 148 -319 148q-49 0 -88 30t-39 76q0 53 33.5 91t93.5 38zM643 1214q38 -37 48.5 -102t-2.5 -131t-31.5 -126.5t-35.5 -98.5l-18 -39q20 191 -125 330q-35 35 -42 81.5t24 83.5q23 23 53 34t65 3.5t64 -35.5z" />
    <glyph glyph-name="bar" unicode="|" 
d="M207 403q-13 0 -19 -2v-200q4 -2 19 -2q37 0 50 25t13 77q0 54 -13 78t-50 24zM518 330v-49h-82v-78h96v-49h-155v297h155v-52h-96v-69h82zM203 150q-47 0 -74 4v292q61 9 76 9q67 0 96 -37.5t29 -116.5t-29.5 -115t-97.5 -36zM586 451h80l39 -164l38 164h82
q3 -45 13 -297h-60q0 108 -6 213l-41 -168h-55l-41 168h-2q-4 -140 -4 -213h-58q3 156 15 297zM987 150q-60 0 -84 35.5t-24 115.5q0 81 24 117.5t84 36.5t85.5 -37t25.5 -117q0 -79 -25.5 -115t-85.5 -36zM987 403q-29 0 -39 -23.5t-10 -78.5q0 -54 10 -78t39 -24
q30 0 40.5 24t10.5 78q0 55 -10 78.5t-41 23.5zM967 1016q49 0 79.5 -24.5t39 -51t8.5 -53.5q0 -43 -34.5 -72.5t-72.5 -34.5q-213 -23 -340 -147q3 8 9 22t25 53.5t39 75.5t50 80.5t59.5 76t66 53.5t71.5 22zM285 909q39 0 78 -21t69.5 -55t58.5 -74.5t48 -81.5t35 -75
t22 -55l8 -21q-117 148 -319 148q-49 0 -88 30t-39 76q0 53 33.5 91t93.5 38zM643 1214q38 -37 48.5 -102t-2.5 -131t-31.5 -126.5t-35.5 -98.5l-18 -39q20 191 -125 330q-35 35 -42 81.5t24 83.5q23 23 53 34t65 3.5t64 -35.5z" />
    <glyph glyph-name="braceright" unicode="}" 
d="M207 403q-13 0 -19 -2v-200q4 -2 19 -2q37 0 50 25t13 77q0 54 -13 78t-50 24zM518 330v-49h-82v-78h96v-49h-155v297h155v-52h-96v-69h82zM203 150q-47 0 -74 4v292q61 9 76 9q67 0 96 -37.5t29 -116.5t-29.5 -115t-97.5 -36zM586 451h80l39 -164l38 164h82
q3 -45 13 -297h-60q0 108 -6 213l-41 -168h-55l-41 168h-2q-4 -140 -4 -213h-58q3 156 15 297zM987 150q-60 0 -84 35.5t-24 115.5q0 81 24 117.5t84 36.5t85.5 -37t25.5 -117q0 -79 -25.5 -115t-85.5 -36zM987 403q-29 0 -39 -23.5t-10 -78.5q0 -54 10 -78t39 -24
q30 0 40.5 24t10.5 78q0 55 -10 78.5t-41 23.5zM967 1016q49 0 79.5 -24.5t39 -51t8.5 -53.5q0 -43 -34.5 -72.5t-72.5 -34.5q-213 -23 -340 -147q3 8 9 22t25 53.5t39 75.5t50 80.5t59.5 76t66 53.5t71.5 22zM285 909q39 0 78 -21t69.5 -55t58.5 -74.5t48 -81.5t35 -75
t22 -55l8 -21q-117 148 -319 148q-49 0 -88 30t-39 76q0 53 33.5 91t93.5 38zM643 1214q38 -37 48.5 -102t-2.5 -131t-31.5 -126.5t-35.5 -98.5l-18 -39q20 191 -125 330q-35 35 -42 81.5t24 83.5q23 23 53 34t65 3.5t64 -35.5z" />
    <glyph glyph-name="asciitilde" unicode="~" 
d="M207 403q-13 0 -19 -2v-200q4 -2 19 -2q37 0 50 25t13 77q0 54 -13 78t-50 24zM518 330v-49h-82v-78h96v-49h-155v297h155v-52h-96v-69h82zM203 150q-47 0 -74 4v292q61 9 76 9q67 0 96 -37.5t29 -116.5t-29.5 -115t-97.5 -36zM586 451h80l39 -164l38 164h82
q3 -45 13 -297h-60q0 108 -6 213l-41 -168h-55l-41 168h-2q-4 -140 -4 -213h-58q3 156 15 297zM987 150q-60 0 -84 35.5t-24 115.5q0 81 24 117.5t84 36.5t85.5 -37t25.5 -117q0 -79 -25.5 -115t-85.5 -36zM987 403q-29 0 -39 -23.5t-10 -78.5q0 -54 10 -78t39 -24
q30 0 40.5 24t10.5 78q0 55 -10 78.5t-41 23.5zM967 1016q49 0 79.5 -24.5t39 -51t8.5 -53.5q0 -43 -34.5 -72.5t-72.5 -34.5q-213 -23 -340 -147q3 8 9 22t25 53.5t39 75.5t50 80.5t59.5 76t66 53.5t71.5 22zM285 909q39 0 78 -21t69.5 -55t58.5 -74.5t48 -81.5t35 -75
t22 -55l8 -21q-117 148 -319 148q-49 0 -88 30t-39 76q0 53 33.5 91t93.5 38zM643 1214q38 -37 48.5 -102t-2.5 -131t-31.5 -126.5t-35.5 -98.5l-18 -39q20 191 -125 330q-35 35 -42 81.5t24 83.5q23 23 53 34t65 3.5t64 -35.5z" />
    </font>
</defs>
</svg>
